<?xml version="1.0" encoding="utf-8"?>
<!-- Generator: Adobe Illustrator 23.0.3, SVG Export Plug-In . SVG Version: 6.00 Build 0)  -->
<svg version="1.1" id="Capa_1" xmlns="http://www.w3.org/2000/svg" xmlns:xlink="http://www.w3.org/1999/xlink" x="0px" y="0px"
	 viewBox="0 0 512 512" style="enable-background:new 0 0 512 512;" xml:space="preserve">
<style type="text/css">
	.st0{fill:#FFDA45;}
	.st1{fill:#65B1FC;}
	.st2{fill:#A7E340;}
	.st3{fill:#FF6666;}
	.st4{fill:#B758CE;}
	.st5{fill:#FFA008;}
	.st6{fill:#0053BF;}
</style>
<path class="st0" d="M166,496C75,496,0,422,0,331c0-65.9,40.1-125.4,100.6-151.8c9.3-4.1,20.1,2.2,20.9,12.6c4,50,35,93.5,81,113.4
	c5.9,2.5,9.5,8.6,9,14.9c-0.3,3.5-0.6,7-0.6,10.8c0,42.2,20.2,82.6,54,108c7.9,6,8,17.9,0,23.9C236.6,484.6,202.3,496,166,496z"/>
<path class="st1" d="M512,331c0,91-75,165-166,165c-36.3,0-70.6-11.4-99.1-33c-8-6-7.9-18,0-23.9c33.8-25.4,54-65.8,54-108
	c0-3.8-0.3-7.3-0.6-10.8c-0.5-6.4,3.1-12.4,9-14.9c46-20,77.1-63.4,81-113.4c0.8-10.4,11.7-16.6,20.9-12.6
	C471.9,205.6,512,265.1,512,331z"/>
<path class="st2" d="M247,463c-41.3-31.1-66-80.4-66-132c0-4.6,0.3-8.9,0.6-13.2c0.8-10.3,11.5-16.6,20.8-12.6
	c33.7,14.3,73.4,14.3,107.1,0c9.2-4,20,2.3,20.8,12.6c4.8,61.1-24.4,118.6-73.6,151c-0.7,0.4-1.5,0.4-2.1-0.1L247,463z"/>
<path class="st3" d="M265.1,223c-2.7,2-5.9,3-9.1,3s-6.4-1-9.1-3c-37.9-28.8-90.9-34.7-134.5-16.2c-9.4,4-20-2.4-20.8-12.6
	c-0.3-4.3-0.6-8.6-0.6-13.2c0-91,74-165,165-165c94.4,0,172.1,80.1,164.4,178.2c-0.8,10.2-11.4,16.6-20.8,12.6
	C355.9,188.2,302.9,194.2,265.1,223z"/>
<path class="st4" d="M321.4,332.8c-9.4,4.1-20.2-2.3-20.9-12.6c-2.9-38.2-22.4-73.6-53.5-97.1c-3.8-2.8-5.9-7.3-5.9-12
	c0-4.7,2.2-9.1,5.9-12c46.3-35.2,111-42.6,164.3-19.8l9.9,4.2l-0.9,10.8C415.5,255.3,377.6,308.4,321.4,332.8z"/>
<path class="st5" d="M196.6,334c-2,0-4.1-0.4-6-1.2c-56.2-24.4-94.1-77.5-99-138.6l-0.9-10.8l9.9-4.2c53.4-22.7,118-15.3,164.3,19.8
	c3.7,2.8,5.9,7.3,5.9,12c0,4.7-2.2,9.1-5.9,12c-31.1,23.6-50.6,59-53.5,97.1c-0.4,4.8-3,9.2-7.2,11.7C202,333.3,199.3,334,196.6,334
	z"/>
<path class="st6" d="M256,346c-26.3,0-51.6-5.9-74.8-17.6c0.5-54.4,28.5-105.3,74.8-135.7c46.3,30.5,74.3,81.4,74.8,135.7
	C307.6,340.1,282.3,346,256,346z"/>
</svg>
